inDegrees=yes
name=IK-live
DataType=double
version=3
OpenSimVersion=4.1
endheader
time	pelvis_tilt	pelvis_list	pelvis_rotation	pelvis_tx	pelvis_ty	pelvis_tz	hip_flexion_r	hip_adduction_r	hip_rotation_r	knee_angle_r	ankle_angle_r	subtalar_angle_r	mtp_angle_r	hip_flexion_l	hip_adduction_l	hip_rotation_l	knee_angle_l	ankle_angle_l	subtalar_angle_l	mtp_angle_l	lumbar_extension	lumbar_bending	lumbar_rotation	neck_flex	neck_latbend	neck_rot	arm_flex_r	arm_add_r	arm_rot_r	elbow_flex_r	pro_sup_r	wrist_flex_r	wrist_dev_r	arm_flex_l	arm_add_l	arm_rot_l	elbow_flex_l	pro_sup_l	wrist_flex_l	wrist_dev_l
73.114238	-4.541311327810039	14.50177074436744	-246.1421420741575	0.2341366603171506	0.04326292228651554	-1.326684523481465	-23.13640702144466	1.14964553637299	-20.90066034481884	5.899560354604904	2.451982624139334	1.987972377786656	0	-24.73190237510368	-1.867552916378801	-20.49304445152862	9.793848132074926	-0.4439473045988533	4.250290820099795	0	-21.37711699760957	1.659277491615732	3.206407148933037	0	0	0	89.83019354119371	-14.99990282375734	-0.002636272418942037	75.00013987217095	45.00000025153977	0	5.000000137526117	89.932158635552	-15.00097366998311	-0.002402336669203952	75.00014064415829	45.00000025381364	0	5.000000137526117
73.264326	-4.541999253064765	14.49992984995729	-246.1376386235386	0.2341366603171506	0.04326292228651554	-1.326684523481465	-23.14101718353449	1.148564110035885	-20.90380915963691	5.899560354604904	2.451982624139334	1.987972377786656	0	-24.72966637909671	-1.867606748951424	-20.48652805015085	9.793848132074926	-0.4439473045988533	4.250290820099795	0	-21.37711699760957	1.659277491615732	3.206407148933037	0	0	0	89.83181319794615	-14.9999055076322	-0.002537893507830867	75.00014178250531	45.00000025206613	0	5.000000137526117	89.93280572772059	-15.00094677539098	-0.002312687639035805	75.00014251349766	45.0000002540251	0	5.000000137526117
73.4311481	-4.543133020348432	14.49998023674844	-246.1370085786234	0.2341366603171506	0.04326292228651554	-1.326684523481465	-23.14088256289999	1.148003835074349	-20.9095208919294	5.899560354604904	2.451982624139334	1.987972377786656	0	-24.72810767200438	-1.867349768235844	-20.49838328991404	9.793848132074926	-0.4439473045988533	4.250290820099795	0	-21.37711699760957	1.659277491615732	3.206407148933037	0	0	0	89.83255887317598	-14.9999067277542	-0.002493454580676604	75.0001426366295	45.00000025228864	0	5.000000137526117	89.9331036430706	-15.00093454878379	-0.002272192103185205	75.00014334929266	45.0000002541145	0	5.000000137526117
73.5979852	-4.536633492106533	14.50326501535334	-246.1432579720183	0.2341366603171506	0.04326292228651554	-1.326684523481465	-23.14134726885833	1.149555572840228	-20.90368135718563	5.899560354604904	2.451982624139334	1.987972377786656	0	-24.7257130682316	-1.871245755134082	-20.49572858166269	9.793848132074926	-0.4439473045988533	4.250290820099795	0	-21.37711699760957	1.659277491615732	3.206407148933037	0	0	0	89.8340689989988	-14.99990916933427	-0.002405141986957057	75.00014431421336	45.00000025269603	0	5.000000137526117	89.93370697499215	-15.00091008218115	-0.002191716132372747	75.00014499087622	45.00000025427816	0	5.000000137526117
73.76436200000001	-4.537165150659853	14.50344522579808	-246.1434266656246	0.2341366603171506	0.04326292228651554	-1.326684523481465	-23.14171398799473	1.150882717409708	-20.90449409573785	5.899560354604904	2.451982624139334	1.987972377786656	0	-24.7238810383537	-1.871655595345476	-20.50974373748278	9.793848132074926	-0.4439473045988533	4.250290820099795	0	-21.37711699760957	1.659277491615732	3.206407148933037	0	0	0	89.83515792237903	-14.99991089979715	-0.002343129034447228	75.00014547436493	45.00000025295421	0	5.000000137526117	89.93414202632232	-15.0008927415466	-0.002135206043079984	75.00014612613138	45.00000025438189	0	5.000000137526117
73.9312199	-4.545513152070271	14.5016591279924	-246.1451994667461	0.2341366603171506	0.04326292228651554	-1.326684523481465	-23.14264744793725	1.143939358229279	-20.89644891003067	5.899560354604904	2.451982624139334	1.987972377786656	0	-24.72105293197911	-1.86270607011608	-20.51523224661043	9.793848132074926	-0.4439473045988533	4.250290820099795	0	-21.37711699760957	1.659277491615732	3.206407148933037	0	0	0	89.83788687226678	-14.99991514072969	-0.002192991611697541	75.0001482272598	45.0000002535007	0	5.000000137526117	89.93523230808945	-15.00085024398013	-0.001998391412894936	75.00014881995023	45.00000025460145	0	5.000000137526117
74.09811070000001	-4.546979784971446	14.49952179979805	-246.1447227959614	0.2341366603171506	0.04326292228651554	-1.326684523481465	-23.14227010296545	1.141695516215597	-20.90211028770712	5.899560354604904	2.451982624139334	1.987972377786656	0	-24.71679169318284	-1.859977524223778	-20.52418046949832	9.793848132074926	-0.4439473045988533	4.250290820099795	0	-21.37711699760957	1.659277491615732	3.206407148933037	0	0	0	89.83861984541876	-14.99991625676065	-0.002153900988840742	75.00014893170064	45.00000025362746	0	5.000000137526117	89.9355251486741	-15.00083906044929	-0.001962769587167595	75.00014950927405	45.00000025465236	0	5.000000137526117
74.2625242	-4.551172870178629	14.49825917851012	-246.1483816534455	0.2341366603171506	0.04326292228651554	-1.326684523481465	-23.14436891729862	1.139285607117633	-20.89710758547214	5.899560354604904	2.451982624139334	1.987972377786656	0	-24.71629152599838	-1.852947317460919	-20.52507147904544	9.793848132074926	-0.4439473045988533	4.250290820099795	0	-21.37711699760957	1.659277491615732	3.206407148933037	0	0	0	89.84021743678302	-14.99991866077323	-0.002070289907980752	75.00015042026908	45.00000025387617	0	5.000000137526117	89.93616342525192	-15.00081497030324	-0.00188657792956192	75.00015096589836	45.00000025475228	0	5.000000137526117
74.41448339999999	-4.550465789908834	14.49609802451278	-246.1550160726528	0.2341366603171506	0.04326292228651554	-1.326684523481465	-23.14647015610072	1.13962483570858	-20.89664464120946	5.899560354604904	2.451982624139334	1.987972377786656	0	-24.71343221215249	-1.851039933362059	-20.52895872817245	9.793848132074926	-0.4439473045988533	4.250290820099795	0	-21.37711699760957	1.659277491615732	3.206407148933037	0	0	0	89.84102513545633	-14.99991985988323	-0.002028895106959122	75.00015114813139	45.00000025398917	0	5.000000137526117	89.93648612050666	-15.00080295425344	-0.001848856392251151	75.00015167814101	45.00000025479766	0	5.000000137526117
